<?xml version="1.0" standalone="no"?><!DOCTYPE svg PUBLIC "-//W3C//DTD SVG 1.1//EN" "http://www.w3.org/Graphics/SVG/1.1/DTD/svg11.dtd"><svg class="icon" width="200px" height="200.00px" viewBox="0 0 1024 1024" version="1.1" xmlns="http://www.w3.org/2000/svg"><path d="M64 64l0 896L960 64 64 64zM518.4 83.2l0 19.2C512 102.4 499.2 102.4 480 108.8l0-12.8C492.8 89.6 505.6 83.2 518.4 83.2zM275.2 307.2l6.4-19.2c12.8 6.4 19.2 6.4 32 12.8l64-64 25.6 25.6L390.4 281.6 371.2 262.4 256 377.6l19.2 19.2L262.4 409.6 230.4 377.6l64-64C288 313.6 281.6 307.2 275.2 307.2zM403.2 294.4 294.4 403.2 281.6 396.8l108.8-108.8L403.2 294.4zM313.6 550.4 230.4 633.6c-12.8 12.8-32 12.8-51.2 0L102.4 550.4l12.8-12.8 19.2 19.2 89.6-89.6L192 422.4 76.8 537.6 70.4 524.8 192 403.2l70.4 70.4L249.6 486.4 243.2 473.6 147.2 569.6 192 614.4c6.4 6.4 19.2 12.8 25.6 0l76.8-76.8C307.2 531.2 307.2 518.4 307.2 512 300.8 505.6 294.4 492.8 281.6 486.4c6.4 0 12.8-6.4 19.2-6.4C313.6 486.4 320 499.2 326.4 505.6 332.8 518.4 326.4 531.2 313.6 550.4zM486.4 384 460.8 409.6C448 422.4 435.2 422.4 422.4 409.6L390.4 371.2 358.4 403.2c25.6 32 32 64 6.4 108.8-6.4 0-12.8 0-19.2-6.4 25.6-38.4 25.6-70.4 0-96L307.2 454.4 294.4 448l147.2-147.2L448 313.6 403.2 358.4l32 32c6.4 6.4 12.8 6.4 19.2 0l19.2-19.2c6.4-6.4 6.4-12.8 6.4-19.2C467.2 352 467.2 345.6 454.4 339.2c6.4 0 12.8-6.4 19.2-6.4 6.4 6.4 12.8 19.2 19.2 25.6C499.2 358.4 499.2 371.2 486.4 384zM627.2 236.8c-12.8 0-25.6 0-38.4-6.4 0 19.2 0 38.4-6.4 51.2-6.4 0-12.8 0-19.2 0C576 262.4 576 243.2 576 224 550.4 211.2 524.8 192 492.8 160L428.8 217.6l25.6 25.6 44.8-44.8c19.2 19.2 32 38.4 44.8 51.2 12.8 12.8 12.8 32 0 44.8C544 294.4 537.6 300.8 531.2 307.2 524.8 307.2 518.4 300.8 512 294.4c6.4-6.4 12.8-12.8 19.2-19.2 6.4-6.4 6.4-12.8 0-25.6C524.8 249.6 512 236.8 499.2 224L467.2 256c32 38.4 51.2 70.4 57.6 102.4-6.4 0-12.8 0-19.2 0C499.2 326.4 480 294.4 448 262.4L409.6 217.6l70.4-70.4C467.2 140.8 460.8 134.4 448 121.6l12.8-12.8C473.6 115.2 480 128 492.8 134.4l51.2-51.2 12.8 12.8L499.2 147.2C531.2 172.8 556.8 192 569.6 204.8 569.6 179.2 563.2 153.6 550.4 134.4l19.2-6.4c12.8 32 19.2 57.6 25.6 89.6 25.6 6.4 38.4 6.4 44.8 0 0 0 0-6.4 0-12.8C627.2 192 620.8 179.2 614.4 172.8c6.4 0 12.8-6.4 19.2-6.4 6.4 12.8 19.2 25.6 19.2 32 6.4 6.4 6.4 19.2 0 25.6C646.4 230.4 640 230.4 627.2 236.8z" fill="#d4237a" /></svg>