<?xml version="1.0" standalone="no"?><!DOCTYPE svg PUBLIC "-//W3C//DTD SVG 1.1//EN" "http://www.w3.org/Graphics/SVG/1.1/DTD/svg11.dtd"><svg class="icon" width="200px" height="200.00px" viewBox="0 0 1024 1024" version="1.1" xmlns="http://www.w3.org/2000/svg"><path d="M601.6 140.8 556.8 185.6 518.4 147.2l44.8-44.8L601.6 140.8zM960 64 64 960 64 64 960 64zM307.2 294.4 320 300.8l83.2-83.2L384 211.2 307.2 294.4zM268.8 307.2c6.4 25.6 6.4 57.6 6.4 83.2 6.4 0 12.8 6.4 19.2 6.4 0-32 0-64-6.4-96L268.8 307.2zM140.8 435.2l25.6 25.6L147.2 486.4l12.8 12.8 19.2-19.2C192 486.4 204.8 499.2 211.2 505.6L185.6 537.6l12.8 12.8 25.6-25.6c12.8 19.2 19.2 38.4 12.8 64 6.4 0 12.8 0 19.2 0 6.4-25.6 0-51.2-19.2-76.8l32-32 44.8 44.8L326.4 512 275.2 460.8l32-32L294.4 422.4 268.8 454.4 236.8 422.4 256 396.8 243.2 384 224 409.6 198.4 384 185.6 396.8l25.6 25.6L179.2 454.4 153.6 422.4 140.8 435.2zM89.6 505.6c19.2 0 32 6.4 51.2 12.8 0-6.4 0-12.8 6.4-19.2C128 492.8 108.8 492.8 89.6 486.4L89.6 505.6zM371.2 505.6c0-6.4-6.4-12.8-6.4-19.2L307.2 544 268.8 576C256 595.2 243.2 595.2 224 595.2l-64-64L128 556.8l12.8 12.8 19.2-19.2 51.2 51.2c0 6.4 0 19.2 0 38.4l19.2 6.4c0-19.2 0-32 0-38.4 19.2 6.4 38.4 0 51.2-19.2L320 556.8 371.2 505.6zM422.4 460.8 339.2 377.6c0-12.8-6.4-25.6-6.4-44.8L313.6 339.2C320 377.6 326.4 409.6 320 435.2c6.4 0 12.8 6.4 19.2 6.4 0-12.8 0-25.6 0-38.4l64 64L422.4 460.8zM486.4 352 422.4 294.4l32-32L441.6 249.6 345.6 345.6l12.8 12.8 57.6-57.6 57.6 57.6c6.4 6.4 6.4 12.8 0 19.2C460.8 390.4 448 396.8 441.6 403.2 448 409.6 454.4 416 460.8 416c6.4-6.4 19.2-19.2 25.6-25.6C499.2 377.6 499.2 364.8 486.4 352zM627.2 256 569.6 198.4l44.8-44.8 6.4 6.4 12.8-12.8L563.2 76.8 505.6 134.4 473.6 102.4 460.8 115.2l32 32L435.2 211.2l70.4 70.4 12.8-12.8L505.6 262.4l44.8-44.8 57.6 57.6L627.2 256zM454.4 211.2l38.4 38.4 44.8-44.8L505.6 160 454.4 211.2zM256 467.2 224 435.2 192 460.8c19.2 19.2 25.6 25.6 32 32L256 467.2z" fill="#1296db" /></svg>