<?xml version="1.0" standalone="no"?><!DOCTYPE svg PUBLIC "-//W3C//DTD SVG 1.1//EN" "http://www.w3.org/Graphics/SVG/1.1/DTD/svg11.dtd"><svg class="icon" width="20px" height="17.53px" viewBox="0 0 1168 1024" version="1.1" xmlns="http://www.w3.org/2000/svg"><path d="M 1087.26 340.622 l -1.23137 -13.6141 h -0.402783 a 287.31 287.31 0 0 0 -29.7829 -93.0885 l -0.0575403 -0.115081 a 324.229 324.229 0 0 0 -84.6188 -101.962 a 308.416 308.416 0 0 0 -116.231 -61.8559 h -0.126589 a 227.227 227.227 0 0 0 -98.1066 -4.66077 a 215.823 215.823 0 0 0 -90.9141 37.9766 l -0.276194 0.195637 l -82.8581 65.9873 a 859.468 859.468 0 0 0 -99.6131 -78.5425 l -1.01271 -0.678976 l -1.15079 -0.506355 A 298.773 298.773 0 0 0 347.972 62.668 a 268.137 268.137 0 0 0 -108.844 24.8459 l -0.195637 0.0920646 a 288.391 288.391 0 0 0 -107.093 88.6122 C 74.46 251.619 52.273 331.991 65.887 415.125 v 0.253177 a 364.092 364.092 0 0 0 66.6317 152.838 C 170.933 621.339 405.869 848.346 477.013 916.693 l 1.95638 1.88733 l 1.72621 1.46153 a 193.232 193.232 0 0 0 64.6754 34.6969 a 163.725 163.725 0 0 0 47.0334 7.25008 h 0.230161 a 148.972 148.972 0 0 0 98.9691 -38.6557 c 78.4045 -67.8976 301.315 -331.847 345.242 -384.094 l 0.966675 -1.15079 a 230.346 230.346 0 0 0 37.5968 -77.5298 a 320.569 320.569 0 0 0 11.8533 -119.937 Z M 567.778 886.242 a 121.387 121.387 0 0 1 -39.9676 -20.6455 c -2.17502 -2.05994 -4.37307 -4.17743 -6.64015 -6.36396 l 210.633 -210.494 l 0.184129 -0.195637 a 35.9857 35.9857 0 0 0 -50.8196 -50.9002 l -211.863 211.668 c -10.7025 -10.3573 -20.8526 -20.1967 -30.669 -29.7713 l 211.242 -211.057 a 35.9167 35.9167 0 0 0 -25.4674 -61.269 h -0.0805562 a 35.675 35.675 0 0 0 -25.3178 10.553 l -211.748 211.53 c -12.2791 -12.095 -26.2959 -25.9162 -40.4393 -39.8985 l 210.172 -210.057 a 35.9397 35.9397 0 0 0 8.80365 -13.7177 a 209.619 209.619 0 0 0 25.5134 13.5565 l 0.874613 0.345242 a 102.607 102.607 0 0 0 116.679 -34.3401 a 106.553 106.553 0 0 0 12.6589 -127.739 l -0.644452 -0.966675 a 729.404 729.404 0 0 0 -84.8721 -97.5188 l 74.0775 -58.8177 a 144.713 144.713 0 0 1 58.8293 -24.0058 a 158.086 158.086 0 0 1 67.3222 3.19925 a 239.598 239.598 0 0 1 89.1879 47.9425 l 0.632945 0.517863 a 230.967 230.967 0 0 1 89.5675 159.641 a 248.263 248.263 0 0 1 -6.35245 82.1792 h -0.126589 l -2.96908 11.1283 a 158.063 158.063 0 0 1 -24.4661 52.1545 l -0.437307 0.506355 c -26.6411 31.6702 -262.499 311.294 -336.83 375.728 l -0.391275 0.345242 a 76.8048 76.8048 0 0 1 -75.9532 16.8247 Z M 426.526 341.37 a 35.3182 35.3182 0 0 0 -3.94727 3.37186 L 213.868 553.314 c -8.13621 -8.9993 -15.9273 -18.2058 -23.2809 -27.7114 l -0.29921 -0.391274 c -51.9013 -72.3167 -93.8831 -183.785 -1.15079 -305.54 l 0.333734 -0.437307 a 200.597 200.597 0 0 1 160.066 -84.6764 h 0.195637 a 234.765 234.765 0 0 1 97.4034 18.6201 a 844.14 844.14 0 0 1 101.122 82.2596 l 0.529372 0.483339 a 762.318 762.318 0 0 1 112.1 120.283 a 35.5715 35.5715 0 0 1 -6.19134 41.6246 l -1.0012 1.01271 l -0.794057 1.15079 a 31.302 31.302 0 0 1 -33.7762 12.8661 c -51.6137 -23.1543 -132.871 -110.938 -133.631 -111.766 a 35.9857 35.9857 0 0 0 -58.9213 40.2783 Z m 46.9529 54.295 c 0.77104 -0.77104 1.50757 -1.57661 2.19803 -2.39367 c 10.9097 10.3573 22.6823 21.0138 34.8349 31.3249 a 36.4921 36.4921 0 0 0 -4.40759 3.84369 L 296.049 638.497 c -11.9915 -12.118 -22.6823 -23.0161 -32.5218 -33.1087 Z" fill="#1296db" /></svg>