<?xml version="1.0" standalone="no"?><!DOCTYPE svg PUBLIC "-//W3C//DTD SVG 1.1//EN" "http://www.w3.org/Graphics/SVG/1.1/DTD/svg11.dtd"><svg class="icon" width="200px" height="200.00px" viewBox="0 0 1024 1024" version="1.1" xmlns="http://www.w3.org/2000/svg"><path d="M97.7 677c14.1-103.4 88.9-189.2 185.3-224.7-54.6-32-88.4-90.3-89-153.5-0.6-98.5 78.8-178.9 177.3-179.5S550 198.1 550.6 296.6c0.4 64.2-33.7 123.6-89.3 155.6 99.1 34.2 170.7 121 185.5 224.8H97.5h0.2z" fill="#8a8a8a" /><path d="M664.9 677c-9.5-73.8-46.5-141.4-103.5-189.2-7-13.2-10.7-27.8-11-42.7-1.7-61 46.3-111.9 107.3-113.6 61-1.7 111.9 46.3 113.6 107.3 0.1 2.1 0.1 4.2 0 6.3 0.1 38.3-20.4 73.7-53.6 92.7 60.8 22 104.7 75.3 114.6 139.2H664.9z" fill="#8a8a8a" /><path d="M718.2 897.7L612.1 779.8l-33.2-128.4 0.4-16.8 31.3-15.4 76.1 37.6 112.7-108.7 56.2 23.1 24.9 23.3 8.6 40.9z" fill="#8a8a8a" /><path d="M926.5 630.8v2.8l-0.1 2.8-0.1 2.7-0.2 2.8-0.3 2.7-0.4 2.7-0.4 2.7-0.5 2.7-0.6 2.7-0.6 2.6-0.7 2.6-0.8 2.6-0.8 2.6-0.9 2.6-0.9 2.5-1 2.5-1.1 2.5-1.1 2.4-1.1 2.4-1.2 2.4-1.3 2.3-1.3 2.3-1.4 2.3-1.4 2.2-1.5 2.2-1.6 2.1-1.6 2.1-1.6 2.1-1.7 2-1.8 1.9-1.8 1.9-178.5 198.2-31.4-34.9 202.3-227.4-1.1-0.5-1.1-0.5-1.1-0.5-1.1-0.5-1.1-0.5-1.1-0.4-1.1-0.4-1.1-0.4-1.1-0.4-1.1-0.3-1.1-0.3-1.1-0.2-1.1-0.2-1.1-0.1-1.1-0.1-1.1-0.1H868l-1.1 0.1-1.1 0.2-1.1 0.2-1.1 0.3-1 0.4-1 0.4-1 0.5-1 0.6-1 0.6-1 0.7-0.9 0.8-0.9 0.9-0.9 0.9-43.9 48.7-7.2-3.6 77.9-86.6-1.3-0.6-1.3-0.6-1.3-0.5-1.3-0.5-1.2-0.5-1.2-0.5-1.2-0.4-1.2-0.4-1.2-0.4-1.2-0.3-1.2-0.3-1.1-0.3-1.1-0.2-1.1-0.2-1.1-0.1-1.1-0.1-1.1-0.1h-2.2l-1 0.1-1 0.1-1 0.2-1 0.3-0.9 0.3-0.9 0.3-0.9 0.4-0.9 0.4-0.8 0.5-0.8 0.6-0.8 0.6-0.7 0.7-0.7 0.7-62.2 69-7.3-4.5 78.5-87.1-1.4-0.6-1.4-0.6-1.1-0.5-1.3-0.5-1.3-0.4-1.3-0.4-1.3-0.4-1.2-0.3-1.3-0.3-1.2-0.3-1.2-0.2-1.2-0.1-1.2-0.1-1.2-0.1H836.9l-1.1 0.1-1.1 0.1-1.1 0.2-1.1 0.2-1.1 0.3-1 0.3-1 0.4-1 0.4-1 0.5-0.9 0.5-1 0.6-0.9 0.6-0.9 0.7-0.9 0.8-0.9 0.8-0.8 0.9-59 64.8-7.3-5 67-74-1.3-0.5-1.6-0.6-0.9-0.3-0.9-0.3-1-0.3-1-0.3-1.1-0.3-1.1-0.2-1.1-0.3-1.2-0.2-1.2-0.2-1.2-0.1-1.2-0.1H803.1l-1.3 0.1-1.3 0.1-1.3 0.2-1.3 0.3-1.3 0.3-1.3 0.4-1.3 0.5-1.3 0.5-1.2 0.6-1.2 0.7-1.2 0.8-1.1 0.9-1.1 1-1.1 1.1-57 62.7-1.8 2-2 2.4-1.1 1.3-1.2 1.4-1.2 1.4-1.3 1.5-1.4 1.5-1.4 1.5-1.5 1.5-1.6 1.5-1.6 1.5-1.7 1.4-1.7 1.4-1.8 1.4-1.8 1.3-1.9 1.2-1.9 1.1-2 1.1-2.1 0.9-2.1 0.8-2.1 0.7-2.2 0.6-2.3 0.4-2.3 0.2h-2.4l-2.4-0.1-2.5-0.3-2.5-0.6-2.5-0.8-2.6-1-1.7-0.8-1.7-0.9-1.6-0.9-1.6-1-1.6-1-1.6-1.1-1.5-1.1-1.5-1.2-1.5-1.3-1.5-1.2-1.5-1.3-1.6-1-2.9-2.7-2.9-2.7-1.5-1.3-1.5-1.3-1.5-1.3-1.5-1.3-1.5-1.2-1.5-1.2-1.6-1.2-1.6-1.1-1.6-1-1.6-1-1.7-1-1.7-0.9-1.7-0.8-1.8-0.7-1.8-0.6-1.8-0.5-1.9-0.4-1.9-0.3-1.9-0.2-1.9-0.1-1.9 0.1-1.9 0.2-1.9 0.3-1.8 0.4-1.8 0.5-1.8 0.6-1.8 0.7-1.7 0.8-1.7 0.9-1.6 1-1.6 1-1.5 1.1-1.5 1.2-1.4 1.3-1.3 1.3-1.3 1.4-1.2 1.4-1.1 1.5-1 1.6-0.9 1.6-0.9 1.7-0.8 1.7-0.6 1.7-0.5 1.8-0.4 1.8-0.3 1.9-0.2 1.9-0.1 1.9 2.1 0.1 2.1 0.2 2 0.2 2 0.3 1.9 0.4 1.9 0.5 1.8 0.5 1.8 0.6 1.7 0.7 1.7 0.8 1.6 0.9 1.6 0.9 1.5 1 1.4 1.1 1.4 1.2 1.4 1.3 1.3 1.4 1.2 1.5 1.2 1.6 1.1 1.6 1 1.8 1 1.8 0.9 1.9 0.9 2 0.8 2.1 0.7 2.2 0.7 2.3 0.6 2.4 0.5 2.5 0.5 2.6 0.4 2.7 0.3 2.8 0.6 4.5 0.7 4.4 0.8 4.3 1 4.2 1.1 4.1 1.3 4 1.4 4 1.5 3.9 1.7 3.8 1.8 3.7 2 3.6 2.2 3.6 2.3 3.5 2.5 3.4 2.7 3.3 2.9 3.3 3.1 3.2 3.2 3.2 3.4 3.1 3.6 3.1 3.8 3 4 3 4.2 2.9 4.5 2.9 4.7 2.9 4.9 2.8 5.1 2.8 5.4 2.8 5.6 2.8 5.8 2.7 6.1 2.7 6.3 2.7-43 47.8L553 721.1l-6.6-8-5.6-8.2-4.5-8.2-3.6-8.3-2.6-8.3-1.7-8.2-0.9-8.2v-8l0.8-7.9 1.5-7.7 2.2-7.4 2.9-7.2 3.6-6.8 4.1-6.5 4.7-6.1 5.2-5.6 5.7-5.1 6.1-4.6 6.5-4 6.9-3.4 7.2-2.8 7.5-2.1 7.7-1.3 7.9-0.6 8 0.2 8.2 1.1 8.3 2 8.3 2.9 8.3 3.9 8.3 4.9 8.2 5.9 8.1 7 1.3 1.3 1.3 1.2 0.6 0.6 1.2 1.1 0.6 0.5 0.6 0.5 0.6 0.5 0.6 0.4 0.6 0.4 0.6 0.4 0.6 0.3 0.6 0.3 0.6 0.2 0.7 0.1 0.7 0.1h0.7l0.7-0.1 0.8-0.1 0.8-0.2 0.8-0.3 0.8-0.4 0.9-0.5 0.9-0.6 0.9-0.7 1-0.8 1-0.9 1.1-1 1.1-1.1 1.1-1.2 43.2-47.7 1.8-1.9 1.9-1.8 1.9-1.8 1.9-1.7 2-1.7 2-1.6 2.1-1.6 2.1-1.5 2.1-1.5 2.2-1.5 2.2-1.4 2.3-1.4 2.3-1.3 2.3-1.2 2.3-1.2 2.4-1.1 2.4-1.1 2.4-1 2.5-1 2.5-0.9 2.6-0.9 2.5-0.8 2.6-0.7 2.6-0.6 2.6-0.6 2.6-0.5 2.7-0.4 2.7-0.4 2.7-0.3 2.7-0.2 2.8-0.2 2.8-0.1h5.5l5.5 0.3 5.4 0.6 5.3 0.8 5.2 1.1 5.1 1.3 5 1.6 4.9 1.8 4.8 2 4.7 2.2 4.6 2.5 4.4 2.7 4.3 2.9 4.1 3.1 4 3.3 3.8 3.5 3.6 3.7 3.5 3.8 3.3 4 3.1 4.1 2.9 4.3 2.7 4.4 2.5 4.6 2.3 4.7 2 4.8 1.8 4.9 1.6 5 1.4 5.2 1.1 5.3 0.8 5.3 0.6 5.4 0.3 5.5 0.2 3.2z" fill="#8a8a8a" /></svg>