<?xml version="1.0" standalone="no"?><!DOCTYPE svg PUBLIC "-//W3C//DTD SVG 1.1//EN" "http://www.w3.org/Graphics/SVG/1.1/DTD/svg11.dtd"><svg class="icon" width="20px" height="19.98px" viewBox="0 0 1025 1024" version="1.1" xmlns="http://www.w3.org/2000/svg"><path d="M287.01696 115.31264c31.37536 0 88.09472 15.00672 180.09088 105.61536l45.6192 44.91264 44.92288-45.63456c63.87712-64.896 131.84-105.20064 177.3824-105.20064 61.40416 0 109.80864 21.01248 157.00992 68.096 44.46208 44.36992 68.992 103.36256 68.992 166.11328 0.03072 62.78144-24.448 121.82016-69.41184 166.67136-3.6608 3.71712-196.992 212.30592-358.95808 387.10272-7.6288 7.24992-16.34816 8.32-20.992 8.32-4.57728 0-13.19936-1.024-20.80256-8.09984-39.47008-43.89888-325.55008-361.99936-358.81472-395.22816-44.52864-44.41088-69.02272-103.4496-69.02272-166.2208 0.01536-62.75072 24.51456-121.728 69.03808-166.144 43.29472-43.25888 93.98272-60.30336 154.94656-60.30336z m-0.00512-64c-76.52864 0-144 22.89664-200.17664 79.00672-117.0688 116.76672-117.0688 306.12992 0 422.9632 33.42336 33.43872 357.85728 394.33728 357.85728 394.33728 18.4832 18.49344 42.75712 27.67872 66.96448 27.67872a94.2592 94.2592 0 0 0 66.90816-27.67872s354.88256-383.0272 358.66112-386.85184c117.03808-116.87936 117.03808-306.24256 0-423.00928-58.112-57.99936-123.02336-86.784-202.20928-86.784-75.648 0-160 60.31872-223.00672 124.31872-64.9984-63.97952-146.74432-123.9808-224.9984-123.9808z" fill="#8a8a8a" /><path d="M643.04128 500.07552a26.20416 26.20416 0 0 0 0-52.40832h-104.81664c2.23232-1.6896 4.16768-3.72736 5.76512-6.03136l69.44256-111.104a26.25024 26.25024 0 0 0-44.55424-27.776l-56.86272 90.14272L455.68 302.75072a26.25024 26.25024 0 0 0-44.54912 27.776l69.44256 111.104c1.4336 2.26304 3.19488 4.3008 5.24288 6.03136H380.99456a26.20416 26.20416 0 0 0 0 52.40832h104.81664v78.61248H380.99456a26.20928 26.20928 0 0 0 0 52.40832h104.81664v78.61248a26.20928 26.20928 0 0 0 52.41344 0V631.0912h104.81664a26.20416 26.20416 0 0 0 0-52.40832h-104.81664V500.07552h104.81664z" fill="#8a8a8a" /></svg>