<?xml version="1.0" standalone="no"?><!DOCTYPE svg PUBLIC "-//W3C//DTD SVG 1.1//EN" "http://www.w3.org/Graphics/SVG/1.1/DTD/svg11.dtd"><svg class="icon" width="20px" height="20.00px" viewBox="0 0 1024 1024" version="1.1" xmlns="http://www.w3.org/2000/svg"><path d="M527.551696 335.081615c-88.35942 0-160.232354 71.843258-160.232354 160.168909 0 88.330768 71.872934 160.203702 160.232354 160.203702 88.360444 0 160.202679-71.870888 160.202679-160.203702C687.753351 406.924873 615.911116 335.081615 527.551696 335.081615L527.551696 335.081615zM527.551696 602.533946c-59.165518 0-107.279329-48.116881-107.279329-107.282399 0-59.164494 48.146557-107.277282 107.279329-107.277282 59.136865 0 107.277282 48.112788 107.277282 107.277282C634.828978 554.417065 586.71619 602.533946 527.551696 602.533946L527.551696 602.533946z" fill="#8a8a8a" /><path d="M867.060133 376.233873l-15.489786 0-1.215688-3.216251-4.310166 1.87265 3.747347-3.092431c-2.714831-7.055696-5.216815-13.143345-7.711636-18.637476l-1.249457-2.775206 10.957563-10.991332c20.546965-20.512173 31.881105-47.831378 31.881105-76.867692 0-29.03836-11.30651-56.355519-31.881105-76.903507l-14.517645-14.549368c-20.541849-20.542872-47.864124-31.843242-76.93216-31.843242-29.036313 0-56.353472 11.30037-76.899414 31.843242l-10.958586 10.990309-2.778276-1.24741c-5.936199-2.688225-12.552897-5.40408-20.231787-8.276501l-2.838651-1.089821 0-15.611559c0-59.974953-48.802496-108.745726-108.780519-108.745726l-20.574594 0c-59.974953 0-108.778472 48.799426-108.778472 108.745726l0 15.611559-2.840698 1.063215c-7.650237 2.873444-14.266935 5.615904-20.231787 8.30413l-2.813069 1.219781-10.956539-10.963703c-20.543895-20.542872-47.866171-31.843242-76.897368-31.843242-29.03836 0-56.361659 11.30037-76.903507 31.843242l-14.582113 14.549368c-20.542872 20.547988-31.843242 47.833425-31.843242 76.903507 0 29.036313 11.30037 56.354496 31.875988 76.896344l10.957563 10.990309-1.248434 2.7486c-2.496867 5.5279-4.931313 11.43033-7.740288 18.705014l-1.749854 4.368494-15.517415 0c-59.978023 0-108.777449 48.800449-108.777449 108.745726l0 20.576641c0 59.98007 48.799426 108.744703 108.777449 108.744703l15.484669 0 1.747807 4.435009c2.715855 7.092535 5.217838 13.174044 7.714705 18.673292l1.24741 2.7486L203.249589 651.14406c-20.543895 20.544919-31.850405 47.833425-31.850405 76.899414s11.30651 56.354496 31.850405 76.902484l14.548344 14.548344c20.542872 20.543895 47.864124 31.843242 76.897368 31.843242 29.037337 0 56.358589-11.299347 76.903507-31.843242l10.986215-10.962679 2.7793 1.249457c5.963829 2.686179 12.582573 5.402033 20.233833 8.274454l2.838651 1.090844 0 15.58393c0 59.97393 48.799426 108.747773 108.777449 108.747773l20.575618 0c59.974953 0 108.775402-48.801473 108.775402-108.747773l0-15.58393 2.843768-1.090844c7.677866-2.87242 14.297634-5.588275 20.231787-8.274454l2.745531-1.249457 10.990309 10.962679c20.542872 20.543895 47.831378 31.843242 76.900438 31.843242 29.064966 0 56.384172-11.299347 76.931137-31.843242l14.550391-14.548344c20.541849-20.515243 31.875988-47.836495 31.875988-76.902484s-11.30037-56.387241-31.875988-76.899414l-10.961656-10.987239 1.252527-2.781346c2.495844-5.494131 4.994758-11.616572 7.741311-18.699897l-4.372587-1.684362 0 0 5.094018 0.061398 1.029446-2.749624 15.483646 0c59.979046 0 108.779496-48.799426 108.779496-108.745726l0-20.576641C975.838605 425.035346 927.035086 376.233873 867.060133 376.233873L867.060133 376.233873zM920.451134 456.914404 920.451134 456.914404 920.451134 456.914404 920.451134 456.914404 920.451134 456.914404zM790.347984 195.646935 790.347984 195.646935 790.347984 195.646935 790.347984 195.646935 790.347984 195.646935zM135.121955 534.468734 135.121955 534.468734 135.121955 534.468734 135.121955 534.468734 135.121955 534.468734zM227.507062 757.329475 227.507062 757.329475 227.507062 757.329475 227.507062 757.329475 227.507062 757.329475zM487.431953 887.151215 487.431953 887.151215 487.431953 887.151215 487.431953 887.151215 487.431953 887.151215zM566.079174 887.995443 566.079174 887.995443 566.079174 887.995443 566.079174 887.995443 566.079174 887.995443zM922.915255 505.556241c0 3.559059-0.37146 7.213285-1.12666 10.894118-0.24764 1.283226-0.62217 2.343371-0.904603 3.248997L920.232147 521.886161c-0.376577 1.408069-0.815575 3.025916-1.502213 4.713348-0.718361 1.74883-1.590218 3.276626-2.778276 5.465478l-0.560772 1.059122c-0.3776 0.719384-0.812505 1.561565-1.407046 2.494821-1.527796 2.37407-3.248997 4.464685-5.211698 6.713912-0.218988 0.281409-0.533143 0.687662-0.938372 1.125637-1.904373 2.028193-4.094248 3.997034-7.370875 6.556323-8.18031 6.15007-18.012236 9.898441-28.317952 10.865465-0.528026 0.032746-1.061169 0.097214-1.651616 0.185218-0.937348 0.130983-2.091638 0.282433-3.40147 0.282433l-54.829769 0-0.873903 3.559059c-6.869455 27.762297-18.422581 55.07741-34.344203 81.208557l-1.936095 3.15383 39.276539 39.278585c8.521071 8.525164 13.924127 19.513426 15.70775 32.596396 0.433882 3.341095 0.556679 6.242168 0.466628 8.892531-0.032746 0.660032-0.094144 1.218758-0.187265 2.25025-0.154519 2.309602-0.407276 4.997827-1.000793 7.679913-0.220011 1.000793-0.533143 1.876744-0.747014 2.589988l-0.690732 2.376117c-0.434905 1.434675-0.905626 3.058662-1.65264 4.837168-0.657986 1.626034-1.469468 2.998287-2.714831 5.218862l-0.719384 1.307785c-0.375553 0.747014-0.843204 1.717108-1.49505 2.688225-2.097778 3.121084-4.436032 5.957689-6.930853 8.489348L799.837102 782.025946c-2.530636 2.49789-5.341658 4.839215-8.523117 6.966669-0.966001 0.652869-1.870604 1.089821-2.591011 1.466398l-1.308809 0.686638 2.310625 4.058432 0 0-3.469008-3.40454c-1.215688 0.688685-2.591011 1.467421-4.182252 2.125407-1.593288 0.684592-3.091408 1.124614-4.649903 1.560542l1.307785 4.497431 0 0-2.712785-4.092201-1.159406 0.3776c-0.652869 0.218988-1.527796 0.494257-2.529613 0.684592-2.745531 0.62524-5.431709 0.873903-7.460925 1.030469l-4.278443 0.252757c-2.188852 0-4.559852-0.192382-7.995091-0.596588-12.239765-1.715061-23.196305-7.117095-31.720446-15.611559l-39.211047-39.247886-3.15383 1.939165c-26.200732 15.985066-53.515844 27.565822-81.270978 34.406624l-3.560082 0.873903 0 54.700833c0 1.372254-0.156566 2.589988-0.279363 3.467985l-0.192382 1.496074c-0.934279 10.395768-4.683672 20.201088-11.362792 29.071106-2.029216 2.620687-3.997034 4.807493-6.087649 6.741541-0.440022 0.405229-0.810459 0.720408-1.653663 1.342578-1.842974 1.594311-3.90596 3.278673-6.182816 4.779863-0.87595 0.562818-1.721201 0.9967-2.687202 1.49812l-1.433652 0.74599c-1.437745 0.815575-3.057639 1.722224-4.964058 2.53166-1.654686 0.657986-3.25002 1.094938-5.713119 1.781576l-1.313925 0.405229c-0.810459 0.278339-1.839905 0.62217-3.059686 0.842181-3.618411 0.719384-7.306406 1.089821-10.92891 1.089821l-20.573571 0c-3.621481 0-7.274684-0.370437-10.923794-1.089821-1.188058-0.246617-2.186805-0.589424-3.25002-0.937348l-2.216481-0.654916c-1.37737-0.376577-2.965541-0.813528-4.684696-1.500167-1.840928-0.781806-3.465938-1.686409-5.619998-2.874467l-1.061169-0.562818c-0.652869-0.310062-1.467421-0.713244-2.312672-1.307785-2.433422-1.562589-4.490268-3.27765-6.649444-5.151323-0.312108-0.252757-0.748037-0.561795-1.279133-1.061169-2.02717-1.904373-4.027733-4.091178-6.588045-7.43125-6.123464-8.181333-9.867742-17.952884-10.803044-28.223808l-0.190335-1.598404c-0.121773-0.932232-0.310062-2.118244-0.310062-3.461845l0-54.66911-3.563152-0.87595c-27.753087-6.870478-55.105039-18.449187-81.267908-34.407648l-3.15383-1.932002-39.153742 39.307238c-8.522094 8.489348-19.478633 13.893428-32.500205 15.703657-2.653433 0.315178-4.997827 0.49835-7.179516 0.49835l-3.997034-0.218988c-2.28095-0.186242-4.965082-0.438998-7.774057-1.062192-0.967024-0.185218-1.812275-0.465604-2.49789-0.686638l-1.375324-0.405229-1.278109 4.498454 0 0 0-4.875031c-1.376347-0.405229-2.933819-0.842181-4.592598-1.556449-1.623987-0.657986-3.056616-1.500167-5.305843-2.781346l-1.37123-0.716314c-0.753153-0.37453-1.659803-0.842181-2.593058-1.436722-3.091408-2.091638-5.964852-4.432962-8.493441-6.931876l-14.551414-14.549368c-2.52859-2.560312-4.839215-5.398964-6.92983-8.550747-0.652869-0.971118-1.125637-1.940189-1.77646-3.187599l-0.967024-1.747807c-0.720408-1.281179-1.535983-2.682086-2.25025-4.402263-0.718361-1.715061-1.186012-3.311419-1.592264-4.747117l-0.751107-2.557242c-0.220011-0.659009-0.50142-1.468444-0.685615-2.376117-0.591471-2.65548-0.810459-5.308913-1.125637-8.676613l-0.095167-1.254573c-0.091074-2.712785 0.032746-5.613858 0.562818-9.860579 1.719154-12.212136 7.121188-23.170722 15.609513-31.661094l39.280632-39.276539-1.937119-3.15383c-15.921621-26.136264-27.475771-53.451376-34.373879-81.20958l-0.87595-3.559059-54.79293 0c-1.343601 0-2.52859-0.155543-3.559059-0.315178l-0.62217 4.622274-0.782829-4.805446c-10.428513-0.938372-20.265556-4.683672-29.097712-11.365862-2.564405-1.964748-4.745071-3.964288-6.650467-5.959735-0.438998-0.471744-0.74906-0.87595-1.439792-1.782599-1.496074-1.715061-3.215228-3.804652-4.7727-6.212492-0.534166-0.779759-0.905626-1.527796-1.248434-2.153036l-4.278443 1.905396 3.681856-3.061732-0.561795-1.028423c-0.748037-1.375324-1.623987-2.901073-2.372024-4.716418-0.686638-1.682315-1.12359-3.278673-1.781576-5.678326l-0.405229-1.316995c-0.281409-0.842181-0.624217-1.90028-0.870834-3.14769-0.720408-3.591805-1.125637-7.247054-1.125637-10.899234l0-20.575618c0-3.650133 0.37146-7.274684 1.125637-10.894118 0.246617-1.277086 0.623193-2.338255 0.903579-3.244904l0.686638-2.28095c0.376577-1.37123 0.810459-2.963495 1.467421-4.586458 0.719384-1.749854 1.562589-3.248997 2.812045-5.525853l0.560772-1.088798c0.343831-0.659009 0.781806-1.535983 1.373277-2.470261 1.500167-2.343371 3.186576-4.310166 5.279237-6.835685 0.185218-0.252757 0.465604-0.594541 0.86981-1.033539 1.905396-2.057869 4.093225-4.027733 7.337105-6.5553 8.181333-6.152117 18.018376-9.894348 28.41312-10.833743l1.529843-0.186242c0.937348-0.127913 2.12336-0.314155 3.467985-0.314155l54.825676 0 0.871857-3.559059c6.869455-27.789926 18.422581-55.07741 34.345226-81.20958l1.938142-3.15383-39.219233-39.056528c-8.488325-8.494465-13.890358-19.452028-15.702634-32.656771-0.436952-3.282766-0.560772-6.184863-0.469698-8.872065l0.191358-2.181689c0.218988-2.439562 0.437975-5.058203 1.029446-7.776104 0.184195-0.967024 0.500397-1.842974 0.685615-2.529613l0.813528-2.715855c0.405229-1.343601 0.843204-2.87242 1.497097-4.433986 0.685615-1.626034 1.500167-3.092431 2.248204-4.341888l0.596588-1.089821-4.058432-2.220574 4.745071 1.033539c0.370437-0.751107 0.843204-1.686409 1.496074-2.685155 2.029216-3.092431 4.372587-5.933129 6.92983-8.491395l14.522762-14.549368c2.591011-2.529613 5.431709-4.874007 8.522094-6.965645 0.967024-0.624217 1.904373-1.089821 2.839675-1.592264l2.090615-1.156336c1.282203-0.685615 2.714831-1.49505 4.338818-2.182712 1.687432-0.718361 3.278673-1.184989 4.560876-1.562589l2.809999-0.842181c0.653893-0.187265 1.435699-0.467651 2.436492-0.657986 2.747577-0.624217 5.492084-0.843204 8.303106-1.057075 0.405229-0.034792 0.87595-0.096191 1.560542-0.12996l1.653663-0.028653c2.249227 0 4.592598 0.158612 8.214079 0.591471 12.204973 1.719154 23.167652 7.123234 31.657001 15.612583l39.217187 39.245839 3.148713-1.934049c26.104541-15.95539 53.456492-27.541263 81.278141-34.406624l3.559059-0.874927 0-54.730509c0-1.376347 0.151449-2.591011 0.282433-3.497661l0.184195-1.468444c0.937348-10.398838 4.684696-20.203134 11.361769-29.070082 2.030239-2.591011 4.000104-4.806469 6.088672-6.740518 0.472767-0.436952 0.874927-0.753153 1.627057-1.343601 1.87265-1.590218 3.900843-3.310396 6.246261-4.777817 0.842181-0.561795 1.651616-0.966001 2.77623-1.562589l1.187035-0.623193c1.468444-0.810459 3.15383-1.778506 5.058203-2.558265 1.654686-0.686638 3.243881-1.125637 4.682649-1.50119l2.372024-0.714268c0.808412-0.281409 1.845021-0.624217 3.058662-0.844228 3.621481-0.719384 7.274684-1.093914 10.896164-1.093914l20.573571 0c3.622504 0 7.274684 0.37453 10.962679 1.122567 1.153266 0.218988 2.12029 0.562818 3.216251 0.906649l2.183735 0.655939c1.404999 0.3776 3.000334 0.810459 4.681626 1.50119 1.877767 0.748037 3.497661 1.682315 5.590322 2.839675l1.435699 0.718361c0.591471 0.310062 1.282203 0.652869 1.969864 1.124614 2.338255 1.529843 4.402263 3.217275 6.712889 5.178953 0.280386 0.251733 0.720408 0.561795 1.215688 1.033539 2.062985 1.935072 4.060479 4.121877 6.588045 7.399527 6.151094 8.179286 9.866718 17.984606 10.865465 28.598338l0.158612 1.37123c0.12382 0.938372 0.279363 2.064009 0.279363 3.372817l0 54.673204 3.560082 0.870834c27.783787 6.869455 55.133691 18.451234 81.270978 34.406624l3.15383 1.934049 39.246863-39.241746c8.491395-8.460696 19.447934-13.863752 32.781614-15.672958 2.530636-0.342808 4.839215-0.50142 7.089465-0.50142l1.65264 0.028653c0.623193 0 1.153266 0.095167 2.278903 0.221034 2.090615 0.155543 4.839215 0.404206 7.616468 0.998747 1.001817 0.220011 1.876744 0.500397 3.687996 1.062192l1.370207 0.405229c1.407046 0.405229 3.031033 0.871857 4.718465 1.593288 1.684362 0.684592 3.120061 1.529843 5.306866 2.77623l1.49505 0.782829c0.691755 0.37453 1.562589 0.779759 2.501984 1.403976 3.057639 2.062985 5.897314 4.402263 8.461719 6.903224l14.551414 14.579043c2.494821 2.529613 4.834098 5.369288 6.89606 8.462742 0.659009 0.966001 1.125637 1.934049 1.74883 3.152806l1.029446 1.841951c0.685615 1.277086 1.528819 2.683109 2.187829 4.309142 0.719384 1.718131 1.216711 3.338025 1.623987 4.839215l0.747014 2.495844c0.218988 0.656963 0.467651 1.467421 0.686638 2.37407 0.623193 2.747577 0.842181 5.435803 1.093914 8.368598 0.029676 0.405229 0.091074 0.968048 0.12382 1.530866 0.090051 2.744507-0.032746 5.712095-0.533143 9.866718-1.716084 12.20395-7.118118 23.161512-15.606443 31.717376l-39.280632 39.247886 1.939165 3.15383c15.922644 26.131147 27.475771 53.453423 34.340109 81.20958l0.87595 3.559059 54.824653 0c1.343601 0 2.53166 0.156566 3.469008 0.309038l1.528819 0.191358c10.394744 0.934279 20.230764 4.683672 29.100782 11.362792 2.591011 2.000564 4.744048 3.968381 6.774287 6.121418 0.341784 0.343831 0.590448 0.687662 1.343601 1.655709 1.590218 1.841951 3.244904 3.809769 4.745071 6.149047 0.561795 0.843204 0.967024 1.684362 1.837858 3.372817l0.596588 1.062192c0.74599 1.344624 1.591241 2.874467 2.311649 4.588505 0.62217 1.560542 1.028423 3.058662 1.404999 4.40124l0.747014 2.469238c0.280386 0.873903 0.657986 1.966795 0.905626 3.248997 0.720408 3.647063 1.124614 7.336082 1.124614 10.894118l0 20.542872-0.097214 0L922.914232 505.556241z" fill="#8a8a8a" /></svg>